<?xml version="1.0" encoding="UTF-8" standalone="no"?>
<!-- Created with Inkscape (http://www.inkscape.org/) -->

<svg
   width="297mm"
   height="210mm"
   viewBox="0 0 297 210"
   version="1.1"
   id="svg5"
   inkscape:version="1.1 (c4e8f9ed74, 2021-05-24)"
   sodipodi:docname="setting.svg"
   xmlns:inkscape="http://www.inkscape.org/namespaces/inkscape"
   xmlns:sodipodi="http://sodipodi.sourceforge.net/DTD/sodipodi-0.dtd"
   xmlns="http://www.w3.org/2000/svg"
   xmlns:svg="http://www.w3.org/2000/svg">
  <sodipodi:namedview
     id="namedview7"
     pagecolor="#ffffff"
     bordercolor="#666666"
     borderopacity="1.0"
     inkscape:pageshadow="2"
     inkscape:pageopacity="0.0"
     inkscape:pagecheckerboard="0"
     inkscape:document-units="mm"
     showgrid="false"
     inkscape:zoom="0.49264169"
     inkscape:cx="156.30021"
     inkscape:cy="235.46525"
     inkscape:window-width="1920"
     inkscape:window-height="1015"
     inkscape:window-x="0"
     inkscape:window-y="0"
     inkscape:window-maximized="1"
     inkscape:current-layer="layer1" />
  <defs
     id="defs2" />
  <g
     inkscape:label="Layer 1"
     inkscape:groupmode="layer"
     id="layer1">
    <path
       id="path846-3"
       style="fill:#b3b3b3;fill-opacity:1;stroke:none;stroke-width:0.324224;stroke-miterlimit:10;stroke-opacity:1"
       d="m 43.493561,111.40516 c -5.492275,7.95082 -8.539465,16.6564 -8.539465,28.76615 10e-7,27.25142 22.084099,49.34307 49.326213,49.34307 27.242081,0 49.326161,-22.09165 49.326161,-49.34307 0,-27.25146 -19.15027,-46.263237 -40.25718,-47.693678 L 93.067373,88.33875 74.365972,88.364 l 0.02089,4.113648 c -6.960059,0.602271 -12.375014,3.399003 -17.726441,6.560235 -7.526534,0.136217 -15.111768,0.612839 -24.437683,0.414918 z"
       sodipodi:nodetypes="csssccccccc" />
    <path
       id="path846"
       style="fill:none;stroke:#000000;stroke-width:0.324224;stroke-miterlimit:10;stroke-opacity:1"
       d="m 43.493561,111.40516 c -5.492275,7.95082 -8.539465,16.6564 -8.539465,28.76615 10e-7,27.25142 22.084099,49.34307 49.326213,49.34307 27.242081,0 49.326171,-22.09165 49.326171,-49.34307 0,-27.25146 -19.15028,-46.263237 -40.25719,-47.693678 l -0.281917,-25.581999 -18.701401,0.02523 0.02089,25.556766 c -6.960059,0.602275 -12.375014,3.399007 -17.726441,6.560238 L 39.677326,79.446724 25.785561,92.597157 Z"
       sodipodi:nodetypes="cssscccccccc" />
    <path
       id="path870-6"
       style="fill:#b3b3b3;fill-opacity:1;stroke:none;stroke-width:0.264583;stroke-miterlimit:10;stroke-opacity:1"
       inkscape:transform-center-x="4.199451e-06"
       inkscape:transform-center-y="-16.732716"
       d="m 238.05077,122.77731 38.38211,63.06927 -57.94401,0.17553 -57.94398,-0.17553 38.3821,-63.06927 c 14.3732,-0.0237 23.42875,0.16161 39.12378,0 z"
       sodipodi:nodetypes="cccccc" />
    <path
       id="path870"
       style="fill:none;stroke:#000000;stroke-width:0.264583;stroke-miterlimit:10;stroke-opacity:1"
       inkscape:transform-center-y="-16.732704"
       d="m 230.03124,73.903984 -0.22499,35.677526 46.62664,76.26508 -57.944,0.17554 -57.94399,-0.17554 46.62663,-76.26508 -0.22498,-35.677526 z"
       sodipodi:nodetypes="cccccccc" />
    <path
       id="rect3610"
       style="fill:none;stroke:#000000;stroke-width:0.264583;stroke-miterlimit:10"
       d="M 75.190423,56.199306 H 92.524837 V 81.756082 H 75.190423 Z"
       sodipodi:nodetypes="ccccc" />
    <path
       id="rect5079"
       style="fill:none;fill-opacity:1;stroke:#000000;stroke-width:0.264583;stroke-miterlimit:10;stroke-opacity:1"
       d="m 216.18544,52.520991 c 0.0859,10.140826 0,122.913349 0,122.913349 h 5.22933 c 0,0 0.19892,-105.274222 0,-126.03653 -0.25494,-26.607562 -42.89028,-37.22132 -69.74401,-37.140912 -26.85373,0.08041 -70.177555,2.964255 -70.705251,28.826783 -0.258973,12.69228 -0.0041,43.156964 -0.0041,43.156964 h 5.229322 c 0,0 0.214873,-31.174748 0.04234,-41.527498 -0.399356,-23.963553 40.902159,-25.345604 65.708799,-24.998563 24.80663,0.34704 64.03712,10.445337 64.24352,34.806407 z"
       sodipodi:nodetypes="sccszsccszs" />
    <text
       xml:space="preserve"
       style="font-size:12.7px;line-height:1.25;font-family:sans-serif;stroke-width:0.264583"
       x="70.26104"
       y="169.28114"
       id="text9439"><tspan
         sodipodi:role="line"
         id="tspan9437"
         style="font-size:12.7px;stroke-width:0.264583"
         x="70.26104"
         y="169.28114">Kalk</tspan></text>
    <text
       xml:space="preserve"
       style="font-size:12.7px;line-height:1.25;font-family:sans-serif;stroke-width:0.264583"
       x="183.84988"
       y="169.28114"
       id="text9439-5"><tspan
         sodipodi:role="line"
         id="tspan9437-3"
         style="font-size:12.7px;stroke-width:0.264583"
         x="183.84988"
         y="169.28114">Weinsteinöl</tspan></text>
  </g>
</svg>
